<svg width="48" height="48" viewBox="0 0 48 48" fill="none" xmlns="http://www.w3.org/2000/svg">
<path d="M25.408 39.0919C25.1983 38.8828 25.0319 38.6344 24.9183 38.361C24.8047 38.0875 24.7463 37.7942 24.7463 37.4981C24.7463 37.202 24.8047 36.9088 24.9183 36.6353C25.0319 36.3618 25.1983 36.1134 25.408 35.9044L35.0624 26.25L7.49992 26.25C6.90318 26.25 6.33089 26.0129 5.90893 25.591C5.48698 25.169 5.24992 24.5967 5.24992 24C5.24992 23.4032 5.48698 22.8309 5.90893 22.409C6.33089 21.987 6.90319 21.75 7.49992 21.75L35.0624 21.75L25.408 12.0919C24.9854 11.6692 24.7479 11.0959 24.7479 10.4981C24.7479 9.90033 24.9854 9.32704 25.408 8.90435C25.8307 8.48167 26.404 8.2442 27.0018 8.2442C27.5996 8.2442 28.1729 8.48167 28.5955 8.90435L42.0955 22.4044C42.3053 22.6134 42.4717 22.8618 42.5853 23.1353C42.6989 23.4088 42.7573 23.702 42.7573 23.9981C42.7573 24.2942 42.6989 24.5875 42.5853 24.8609C42.4717 25.1344 42.3053 25.3828 42.0955 25.5919L28.5955 39.0919C28.3865 39.3016 28.1381 39.468 27.8646 39.5816C27.5911 39.6952 27.2979 39.7536 27.0018 39.7536C26.7057 39.7536 26.4124 39.6952 26.139 39.5816C25.8655 39.468 25.6171 39.3016 25.408 39.0919Z" fill="#755555"/>
</svg>
