<svg width="36" height="36" viewBox="0 0 36 36" fill="none" xmlns="http://www.w3.org/2000/svg">
<path d="M12.198 3.756L6.62997 13.5H4.49997C4.26941 13.5003 4.04201 13.5536 3.83539 13.6559C3.62878 13.7582 3.44849 13.9067 3.30852 14.0899C3.16854 14.2731 3.07264 14.4861 3.02823 14.7123C2.98383 14.9386 2.99212 15.172 3.05247 15.3945L7.25097 30.789C7.425 31.4236 7.80245 31.9836 8.32541 32.383C8.84837 32.7824 9.48794 32.9991 10.146 33H25.8555C27.2025 33 28.3935 32.0925 28.7505 30.7875L32.949 15.393C33.01 15.1704 33.0188 14.9367 32.9746 14.7102C32.9303 14.4836 32.8343 14.2704 32.694 14.0871C32.5537 13.9038 32.3729 13.7554 32.1658 13.6536C31.9587 13.5517 31.7308 13.4992 31.5 13.5H29.37L23.802 3.756L21.198 5.244L25.9155 13.5H10.0845L14.802 5.244L12.198 3.756ZM21 19.5H24V27H21V19.5ZM12 19.5H15V27H12V19.5Z" fill="#4C0D15"/>
</svg>
