<svg width="85" height="85" viewBox="0 0 85 85" fill="none" xmlns="http://www.w3.org/2000/svg">
<path d="M71.4 42.5C71.4 58.48 58.48 71.4 42.5 71.4C26.52 71.4 13.6 58.48 13.6 42.5C13.6 26.52 26.52 13.6 42.5 13.6C58.48 13.6 71.4 26.52 71.4 42.5ZM17 42.5C17 56.61 28.39 68 42.5 68C56.61 68 68 56.61 68 42.5C68 28.39 56.61 17 42.5 17C28.39 17 17 28.39 17 42.5Z" fill="#E67C94"/>
<path d="M58.48 42.5L41.99 58.99L39.61 56.61L53.72 42.5L39.61 28.39L41.99 26.01L58.48 42.5Z" fill="#E67C94"/>
<path d="M27.2 44.2L27.2 40.8L56.1 40.7999L56.1 44.1999L27.2 44.2Z" fill="#E67C94"/>
</svg>
