<svg width="58" height="58" viewBox="0 0 58 58" fill="none" xmlns="http://www.w3.org/2000/svg">
<path d="M31.4843 4.83574C33.2478 4.82897 35.0114 4.84669 36.7744 4.8889L37.2432 4.90582C37.7846 4.92515 38.3186 4.94932 38.9639 4.97832C41.5352 5.09915 43.2897 5.50515 44.8291 6.10207C46.4241 6.7159 47.7678 7.54724 49.1115 8.8909C50.34 10.0983 51.2909 11.5588 51.8979 13.1708C52.4948 14.7102 52.9008 16.4672 53.0216 19.0385C53.0506 19.6813 53.0748 20.2178 53.0941 20.7592L53.1086 21.228C53.1516 22.9902 53.1701 24.7529 53.1642 26.5157L53.1666 28.3185V31.4843C53.1726 33.2479 53.1541 35.0114 53.111 36.7744L53.0966 37.2432C53.0772 37.7846 53.0531 38.3187 53.0241 38.9639C52.9032 41.5352 52.4924 43.2897 51.8979 44.8292C51.2929 46.4429 50.3418 47.9046 49.1115 49.1115C47.903 50.3399 46.4418 51.2907 44.8291 51.8979C43.2897 52.4948 41.5352 52.9008 38.9639 53.0217C38.3186 53.0507 37.7846 53.0748 37.2432 53.0942L36.7744 53.1087C35.0114 53.1516 33.2478 53.1701 31.4843 53.1642L29.6815 53.1667H26.5181C24.7545 53.1726 22.991 53.1541 21.228 53.1111L20.7591 53.0966C20.1854 53.0758 19.6119 53.0516 19.0385 53.0241C16.4671 52.9032 14.7126 52.4924 13.1708 51.8979C11.5581 51.2922 10.0974 50.3411 8.89089 49.1115C7.66091 47.9038 6.70918 46.4424 6.10205 44.8292C5.50514 43.2897 5.09914 41.5352 4.9783 38.9639C4.95139 38.3905 4.92722 37.8169 4.9058 37.2432L4.89372 36.7744C4.84917 35.0114 4.82902 33.2479 4.8333 31.4843V26.5157C4.82656 24.7529 4.84428 22.9902 4.88647 21.228L4.90339 20.7592C4.92272 20.2178 4.94689 19.6813 4.97589 19.0385C5.09672 16.4647 5.50272 14.7127 6.09964 13.1708C6.70712 11.558 7.66072 10.0979 8.8933 8.89332C10.099 7.66264 11.5588 6.71004 13.1708 6.10207C14.7126 5.50515 16.4647 5.09915 19.0385 4.97832L20.7591 4.90582L21.228 4.89374C22.9902 4.84921 24.7529 4.82906 26.5156 4.83332L31.4843 4.83574ZM29 16.9191C27.3989 16.8964 25.8094 17.1922 24.3237 17.7892C22.8379 18.3863 21.4857 19.2726 20.3455 20.3968C19.2053 21.521 18.2999 22.8605 17.682 24.3377C17.064 25.8148 16.7458 27.4 16.7458 29.0012C16.7458 30.6024 17.064 32.1876 17.682 33.6647C18.2999 35.1419 19.2053 36.4814 20.3455 37.6056C21.4857 38.7298 22.8379 39.6161 24.3237 40.2132C25.8094 40.8102 27.3989 41.106 29 41.0833C32.2047 41.0833 35.2781 39.8103 37.5442 37.5442C39.8102 35.2781 41.0833 32.2047 41.0833 29C41.0833 25.7953 39.8102 22.7218 37.5442 20.4558C35.2781 18.1897 32.2047 16.9191 29 16.9191ZM29 21.7524C29.963 21.7347 30.92 21.909 31.8149 22.2652C32.7098 22.6215 33.5248 23.1525 34.2122 23.8272C34.8996 24.502 35.4456 25.3069 35.8185 26.1951C36.1913 27.0832 36.3834 28.0367 36.3835 29C36.3837 29.9632 36.1919 30.9168 35.8194 31.8051C35.4469 32.6933 34.9011 33.4985 34.2139 34.1734C33.5267 34.8484 32.7119 35.3797 31.8171 35.7362C30.9223 36.0928 29.9655 36.2674 29.0024 36.25C27.0796 36.25 25.2355 35.4862 23.8759 34.1265C22.5162 32.7669 21.7524 30.9228 21.7524 29C21.7524 27.0772 22.5162 25.2331 23.8759 23.8735C25.2355 22.5138 27.0796 21.75 29.0024 21.75L29 21.7524ZM41.6875 13.2941C40.9078 13.3253 40.1705 13.6569 39.6299 14.2196C39.0894 14.7822 38.7874 15.5322 38.7874 16.3125C38.7874 17.0927 39.0894 17.8427 39.6299 18.4054C40.1705 18.968 40.9078 19.2997 41.6875 19.3309C42.4886 19.3309 43.257 19.0126 43.8235 18.4461C44.39 17.8796 44.7083 17.1112 44.7083 16.3101C44.7083 15.5089 44.39 14.7405 43.8235 14.174C43.257 13.6075 42.4886 13.2892 41.6875 13.2892V13.2941Z" fill="white"/>
</svg>
