<svg width="39" height="38" viewBox="0 0 39 38" fill="none" xmlns="http://www.w3.org/2000/svg">
<path d="M19.325 29.3708L19.1667 29.5292L18.9925 29.3708C11.4717 22.5467 6.50003 18.0342 6.50003 13.4583C6.50003 10.2917 8.87503 7.91667 12.0417 7.91667C14.48 7.91667 16.855 9.5 17.6942 11.6533H20.6392C21.4784 9.5 23.8534 7.91667 26.2917 7.91667C29.4584 7.91667 31.8334 10.2917 31.8334 13.4583C31.8334 18.0342 26.8617 22.5467 19.325 29.3708ZM26.2917 4.75C23.5367 4.75 20.8925 6.0325 19.1667 8.04333C17.4409 6.0325 14.7967 4.75 12.0417 4.75C7.16503 4.75 3.33336 8.56583 3.33336 13.4583C3.33336 19.4275 8.71669 24.32 16.8709 31.7142L19.1667 33.8042L21.4625 31.7142C29.6167 24.32 35 19.4275 35 13.4583C35 8.56583 31.1684 4.75 26.2917 4.75Z" fill="#FA9FB2"/>
</svg>
